{
	"asset":{
		"generator":"Khronos glTF Blender I/O v3.5.30",
		"version":"2.0"
	},
	"scene":0,
	"scenes":[
		{
			"name":"Scene",
			"nodes":[
				0
			]
		}
	],
	"nodes":[
		{
			"mesh":0,
			"name":"ibm_3278",
			"scale":[
				3.2075998783111572,
				3.2075998783111572,
				3.2075998783111572
			]
		}
	],
	"materials":[
		{
			"doubleSided":true,
			"name":"ibm_3278",
			"pbrMetallicRoughness":{
				"baseColorTexture":{
					"index":0
				},
				"metallicFactor":0,
				"roughnessFactor":0.5
			}
		},
		{
			"doubleSided":true,
			"name":"display",
			"pbrMetallicRoughness":{
				"baseColorTexture":{
					"index":1
				},
				"metallicFactor":0,
				"roughnessFactor":0.5
			}
		},
		{
			"doubleSided":true,
			"name":"ibm_3278_keyboard",
			"pbrMetallicRoughness":{
				"baseColorTexture":{
					"index":2
				},
				"metallicFactor":0,
				"roughnessFactor":0.5
			}
		}
	],
	"meshes":[
		{
			"name":"Cube.005",
			"primitives":[
				{
					"attributes":{
						"POSITION":0,
						"TEXCOORD_0":1,
						"NORMAL":2
					},
					"indices":3,
					"material":0
				},
				{
					"attributes":{
						"POSITION":4,
						"TEXCOORD_0":5,
						"NORMAL":6
					},
					"indices":7,
					"material":1
				},
				{
					"attributes":{
						"POSITION":8,
						"TEXCOORD_0":9,
						"NORMAL":10
					},
					"indices":11,
					"material":2
				}
			]
		}
	],
	"textures":[
		{
			"sampler":0,
			"source":0
		},
		{
			"sampler":0,
			"source":1
		},
		{
			"sampler":0,
			"source":2
		}
	],
	"images":[
		{
			"bufferView":4,
			"mimeType":"image/png",
			"name":"ibm_3278"
		},
		{
			"bufferView":9,
			"mimeType":"image/png",
			"name":"display_07"
		},
		{
			"bufferView":14,
			"mimeType":"image/png",
			"name":"ibm_3278_keyboard"
		}
	],
	"accessors":[
		{
			"bufferView":0,
			"componentType":5126,
			"count":1107,
			"max":[
				2.458543062210083,
				8.40316390991211,
				3.667710065841675
			],
			"min":[
				-6.353612899780273,
				0,
				-3.667710781097412
			],
			"type":"VEC3"
		},
		{
			"bufferView":1,
			"componentType":5126,
			"count":1107,
			"type":"VEC2"
		},
		{
			"bufferView":2,
			"componentType":5126,
			"count":1107,
			"type":"VEC3"
		},
		{
			"bufferView":3,
			"componentType":5123,
			"count":3528,
			"type":"SCALAR"
		},
		{
			"bufferView":5,
			"componentType":5126,
			"count":81,
			"max":[
				2.1857409477233887,
				7.805549144744873,
				2.669727087020874
			],
			"min":[
				1.498594045639038,
				3.474278450012207,
				-2.669727087020874
			],
			"type":"VEC3"
		},
		{
			"bufferView":6,
			"componentType":5126,
			"count":81,
			"type":"VEC2"
		},
		{
			"bufferView":7,
			"componentType":5126,
			"count":81,
			"type":"VEC3"
		},
		{
			"bufferView":8,
			"componentType":5123,
			"count":384,
			"type":"SCALAR"
		},
		{
			"bufferView":10,
			"componentType":5126,
			"count":2587,
			"max":[
				5.555555820465088,
				1.5504549741744995,
				5.1111884117126465
			],
			"min":[
				-3.432504653930664,
				1.4483927657238382e-07,
				-3.6363637447357178
			],
			"type":"VEC3"
		},
		{
			"bufferView":11,
			"componentType":5126,
			"count":2587,
			"type":"VEC2"
		},
		{
			"bufferView":12,
			"componentType":5126,
			"count":2587,
			"type":"VEC3"
		},
		{
			"bufferView":13,
			"componentType":5123,
			"count":6240,
			"type":"SCALAR"
		}
	],
	"bufferViews":[
		{
			"buffer":0,
			"byteLength":13284,
			"byteOffset":0,
			"target":34962
		},
		{
			"buffer":0,
			"byteLength":8856,
			"byteOffset":13284,
			"target":34962
		},
		{
			"buffer":0,
			"byteLength":13284,
			"byteOffset":22140,
			"target":34962
		},
		{
			"buffer":0,
			"byteLength":7056,
			"byteOffset":35424,
			"target":34963
		},
		{
			"buffer":0,
			"byteLength":112807,
			"byteOffset":42480
		},
		{
			"buffer":0,
			"byteLength":972,
			"byteOffset":155288,
			"target":34962
		},
		{
			"buffer":0,
			"byteLength":648,
			"byteOffset":156260,
			"target":34962
		},
		{
			"buffer":0,
			"byteLength":972,
			"byteOffset":156908,
			"target":34962
		},
		{
			"buffer":0,
			"byteLength":768,
			"byteOffset":157880,
			"target":34963
		},
		{
			"buffer":0,
			"byteLength":70108,
			"byteOffset":158648
		},
		{
			"buffer":0,
			"byteLength":31044,
			"byteOffset":228756,
			"target":34962
		},
		{
			"buffer":0,
			"byteLength":20696,
			"byteOffset":259800,
			"target":34962
		},
		{
			"buffer":0,
			"byteLength":31044,
			"byteOffset":280496,
			"target":34962
		},
		{
			"buffer":0,
			"byteLength":12480,
			"byteOffset":311540,
			"target":34963
		},
		{
			"buffer":0,
			"byteLength":152283,
			"byteOffset":324020
		}
	],
	"samplers":[
		{
			"magFilter":9729,
			"minFilter":9987
		}
	],
	"buffers":[
		{
			"byteLength":476304,
			"uri":"data:application/octet-stream;base64,"
		}
	]
}
